<mxfile host="app.diagrams.net" modified="2023-11-12T15:33:02.385Z" agent="Mozilla/5.0 (Macintosh; Intel Mac OS X 10_15_7) AppleWebKit/537.36 (KHTML, like Gecko) Chrome/119.0.0.0 Safari/537.36" etag="kw8kIMhlzu-1yUgCO9iA" version="22.1.0" type="device">
  <diagram name="Page-1" id="mAdzMN72fTI-L0fhKQFl">
    <mxGraphModel dx="1656" dy="1096" grid="1" gridSize="10" guides="1" tooltips="1" connect="1" arrows="1" fold="1" page="1" pageScale="1" pageWidth="1450" pageHeight="919" background="#F4F0E6" math="0" shadow="0">
      <root>
        <mxCell id="0" />
        <mxCell id="1" parent="0" />
        <mxCell id="Xx6dp7dmALm0e4QaXN19-1" value="" style="rounded=0;whiteSpace=wrap;html=1;fillColor=none;strokeColor=#F85D23;" parent="1" vertex="1">
          <mxGeometry x="130" y="40" width="1300" height="860" as="geometry" />
        </mxCell>
        <mxCell id="Xx6dp7dmALm0e4QaXN19-7" value="" style="rounded=1;whiteSpace=wrap;html=1;fillColor=none;strokeColor=#F85D23;" parent="1" vertex="1">
          <mxGeometry x="880" y="670" width="520" height="210" as="geometry" />
        </mxCell>
        <mxCell id="Xx6dp7dmALm0e4QaXN19-67" value="" style="rounded=1;whiteSpace=wrap;html=1;fillColor=none;dashed=1;strokeColor=#000000;" parent="1" vertex="1">
          <mxGeometry x="1020" y="699" width="240" height="160" as="geometry" />
        </mxCell>
        <mxCell id="Xx6dp7dmALm0e4QaXN19-116" value="" style="rounded=1;whiteSpace=wrap;html=1;fillColor=none;strokeColor=#800080;dashed=1;" parent="1" vertex="1">
          <mxGeometry x="340" y="210" width="1070" height="420" as="geometry" />
        </mxCell>
        <mxCell id="Xx6dp7dmALm0e4QaXN19-8" value="" style="rounded=1;whiteSpace=wrap;html=1;fillColor=none;strokeColor=#F85D23;" parent="1" vertex="1">
          <mxGeometry x="500" y="270" width="500" height="340" as="geometry" />
        </mxCell>
        <mxCell id="Xx6dp7dmALm0e4QaXN19-3" value="Traffic" style="rounded=1;whiteSpace=wrap;html=1;fillColor=none;dashed=1;" parent="1" vertex="1">
          <mxGeometry x="20" y="420" width="90" height="40" as="geometry" />
        </mxCell>
        <mxCell id="Xx6dp7dmALm0e4QaXN19-4" value="" style="rounded=1;whiteSpace=wrap;html=1;fillColor=none;strokeColor=#F85D23;" parent="1" vertex="1">
          <mxGeometry x="160" y="120" width="320" height="250" as="geometry" />
        </mxCell>
        <mxCell id="Xx6dp7dmALm0e4QaXN19-5" value="" style="rounded=1;whiteSpace=wrap;html=1;fillColor=none;strokeColor=#F85D23;" parent="1" vertex="1">
          <mxGeometry x="150" y="480" width="330" height="260" as="geometry" />
        </mxCell>
        <mxCell id="Xx6dp7dmALm0e4QaXN19-6" value="" style="rounded=1;whiteSpace=wrap;html=1;fillColor=none;strokeColor=#F85D23;" parent="1" vertex="1">
          <mxGeometry x="1020" y="78" width="370" height="300" as="geometry" />
        </mxCell>
        <mxCell id="Xx6dp7dmALm0e4QaXN19-9" value="STATIC ASSETS HOSTING" style="text;html=1;strokeColor=none;fillColor=none;align=center;verticalAlign=middle;whiteSpace=wrap;rounded=0;fontColor=#F85D23;labelBackgroundColor=#F4F0E6;" parent="1" vertex="1">
          <mxGeometry x="235" y="450" width="160" height="30" as="geometry" />
        </mxCell>
        <mxCell id="Xx6dp7dmALm0e4QaXN19-10" value="PUBLIC ASSETS HOSTING" style="text;html=1;strokeColor=none;fillColor=none;align=center;verticalAlign=middle;whiteSpace=wrap;rounded=0;fontColor=#F85D23;" parent="1" vertex="1">
          <mxGeometry x="240" y="90" width="160" height="30" as="geometry" />
        </mxCell>
        <mxCell id="Xx6dp7dmALm0e4QaXN19-11" value="DISTRIBUTION" style="text;html=1;strokeColor=none;fillColor=none;align=center;verticalAlign=middle;whiteSpace=wrap;rounded=0;fontColor=#F85D23;" parent="1" vertex="1">
          <mxGeometry x="675" y="240" width="160" height="30" as="geometry" />
        </mxCell>
        <mxCell id="Xx6dp7dmALm0e4QaXN19-12" value="SERVER SIDE RENDERING" style="text;html=1;strokeColor=none;fillColor=none;align=center;verticalAlign=middle;whiteSpace=wrap;rounded=0;fontColor=#F85D23;" parent="1" vertex="1">
          <mxGeometry x="1060" y="640" width="160" height="30" as="geometry" />
        </mxCell>
        <mxCell id="Xx6dp7dmALm0e4QaXN19-13" value="IMAGE OPTIMIZATION" style="text;html=1;strokeColor=none;fillColor=none;align=center;verticalAlign=middle;whiteSpace=wrap;rounded=0;fontColor=#F85D23;" parent="1" vertex="1">
          <mxGeometry x="1125" y="50" width="160" height="28" as="geometry" />
        </mxCell>
        <mxCell id="Xx6dp7dmALm0e4QaXN19-14" value="" style="points=[[0,0,0],[0.25,0,0],[0.5,0,0],[0.75,0,0],[1,0,0],[0,1,0],[0.25,1,0],[0.5,1,0],[0.75,1,0],[1,1,0],[0,0.25,0],[0,0.5,0],[0,0.75,0],[1,0.25,0],[1,0.5,0],[1,0.75,0]];outlineConnect=0;fontColor=#232F3E;fillColor=#7AA116;strokeColor=#ffffff;dashed=0;verticalLabelPosition=bottom;verticalAlign=top;align=center;html=1;fontSize=12;fontStyle=0;aspect=fixed;shape=mxgraph.aws4.resourceIcon;resIcon=mxgraph.aws4.s3;shadow=0;" parent="1" vertex="1">
          <mxGeometry x="176.5" y="621" width="78" height="78" as="geometry" />
        </mxCell>
        <mxCell id="Xx6dp7dmALm0e4QaXN19-20" value="" style="edgeStyle=orthogonalEdgeStyle;rounded=0;orthogonalLoop=1;jettySize=auto;html=1;entryX=1;entryY=0.5;entryDx=0;entryDy=0;entryPerimeter=0;" parent="1" source="Xx6dp7dmALm0e4QaXN19-15" target="Xx6dp7dmALm0e4QaXN19-14" edge="1">
          <mxGeometry relative="1" as="geometry">
            <mxPoint x="37.947368421052715" y="870" as="targetPoint" />
          </mxGeometry>
        </mxCell>
        <mxCell id="Xx6dp7dmALm0e4QaXN19-15" value="" style="outlineConnect=0;dashed=0;verticalLabelPosition=bottom;verticalAlign=top;align=center;html=1;shape=mxgraph.aws3.iam;fillColor=#759C3E;gradientColor=none;" parent="1" vertex="1">
          <mxGeometry x="306.25" y="619.5" width="42" height="81" as="geometry" />
        </mxCell>
        <mxCell id="Xx6dp7dmALm0e4QaXN19-18" value="" style="edgeStyle=orthogonalEdgeStyle;rounded=0;orthogonalLoop=1;jettySize=auto;html=1;entryX=0.92;entryY=0.5;entryDx=0;entryDy=0;entryPerimeter=0;" parent="1" source="Xx6dp7dmALm0e4QaXN19-17" target="Xx6dp7dmALm0e4QaXN19-15" edge="1">
          <mxGeometry relative="1" as="geometry">
            <mxPoint x="180" y="660" as="targetPoint" />
            <Array as="points">
              <mxPoint x="360" y="579" />
              <mxPoint x="360" y="660" />
            </Array>
          </mxGeometry>
        </mxCell>
        <mxCell id="Xx6dp7dmALm0e4QaXN19-17" value="" style="sketch=0;points=[[0,0,0],[0.25,0,0],[0.5,0,0],[0.75,0,0],[1,0,0],[0,1,0],[0.25,1,0],[0.5,1,0],[0.75,1,0],[1,1,0],[0,0.25,0],[0,0.5,0],[0,0.75,0],[1,0.25,0],[1,0.5,0],[1,0.75,0]];outlineConnect=0;fontColor=#232F3E;fillColor=none;strokeColor=#B82E2E;dashed=0;verticalLabelPosition=bottom;verticalAlign=top;align=center;html=1;fontSize=12;fontStyle=0;aspect=fixed;shape=mxgraph.aws4.resourceIcon;resIcon=mxgraph.aws4.cloudfront;" parent="1" vertex="1">
          <mxGeometry x="379.25" y="511.5" width="78" height="78" as="geometry" />
        </mxCell>
        <mxCell id="Xx6dp7dmALm0e4QaXN19-21" value="S3 Bucket" style="text;html=1;strokeColor=none;fillColor=none;align=center;verticalAlign=middle;whiteSpace=wrap;rounded=0;" parent="1" vertex="1">
          <mxGeometry x="185.5" y="591" width="60" height="30" as="geometry" />
        </mxCell>
        <mxCell id="Xx6dp7dmALm0e4QaXN19-22" value="static-assets" style="text;html=1;strokeColor=none;fillColor=none;align=center;verticalAlign=middle;whiteSpace=wrap;rounded=0;" parent="1" vertex="1">
          <mxGeometry x="170" y="699" width="91" height="30" as="geometry" />
        </mxCell>
        <mxCell id="Xx6dp7dmALm0e4QaXN19-23" value="IAM" style="text;html=1;strokeColor=none;fillColor=none;align=center;verticalAlign=middle;whiteSpace=wrap;rounded=0;" parent="1" vertex="1">
          <mxGeometry x="297.25" y="589.5" width="60" height="30" as="geometry" />
        </mxCell>
        <mxCell id="Xx6dp7dmALm0e4QaXN19-25" value="OAI" style="text;html=1;strokeColor=none;fillColor=none;align=center;verticalAlign=middle;whiteSpace=wrap;rounded=0;" parent="1" vertex="1">
          <mxGeometry x="388.25" y="489.5" width="60" height="30" as="geometry" />
        </mxCell>
        <mxCell id="Xx6dp7dmALm0e4QaXN19-29" value="static_assets_origin" style="text;html=1;strokeColor=none;fillColor=none;align=center;verticalAlign=middle;whiteSpace=wrap;rounded=0;" parent="1" vertex="1">
          <mxGeometry x="360" y="581" width="116.5" height="30" as="geometry" />
        </mxCell>
        <mxCell id="Xx6dp7dmALm0e4QaXN19-41" value="" style="edgeStyle=orthogonalEdgeStyle;rounded=0;orthogonalLoop=1;jettySize=auto;html=1;" parent="1" source="Xx6dp7dmALm0e4QaXN19-30" target="Xx6dp7dmALm0e4QaXN19-33" edge="1">
          <mxGeometry relative="1" as="geometry" />
        </mxCell>
        <mxCell id="Xx6dp7dmALm0e4QaXN19-30" value="" style="sketch=0;points=[[0,0,0],[0.25,0,0],[0.5,0,0],[0.75,0,0],[1,0,0],[0,1,0],[0.25,1,0],[0.5,1,0],[0.75,1,0],[1,1,0],[0,0.25,0],[0,0.5,0],[0,0.75,0],[1,0.25,0],[1,0.5,0],[1,0.75,0]];outlineConnect=0;fontColor=#232F3E;fillColor=none;strokeColor=#B82E2E;dashed=0;verticalLabelPosition=bottom;verticalAlign=top;align=center;html=1;fontSize=12;fontStyle=0;aspect=fixed;shape=mxgraph.aws4.resourceIcon;resIcon=mxgraph.aws4.cloudfront;" parent="1" vertex="1">
          <mxGeometry x="366.5" y="256.75" width="78" height="78" as="geometry" />
        </mxCell>
        <mxCell id="Xx6dp7dmALm0e4QaXN19-31" value="OAI" style="text;html=1;strokeColor=none;fillColor=none;align=center;verticalAlign=middle;whiteSpace=wrap;rounded=0;" parent="1" vertex="1">
          <mxGeometry x="375.5" y="234.75" width="60" height="30" as="geometry" />
        </mxCell>
        <mxCell id="Xx6dp7dmALm0e4QaXN19-32" value="public_assets_origin" style="text;html=1;strokeColor=none;fillColor=none;align=center;verticalAlign=middle;whiteSpace=wrap;rounded=0;" parent="1" vertex="1">
          <mxGeometry x="360" y="325.25" width="91" height="30" as="geometry" />
        </mxCell>
        <mxCell id="Xx6dp7dmALm0e4QaXN19-42" value="" style="edgeStyle=orthogonalEdgeStyle;rounded=0;orthogonalLoop=1;jettySize=auto;html=1;" parent="1" source="Xx6dp7dmALm0e4QaXN19-33" target="Xx6dp7dmALm0e4QaXN19-34" edge="1">
          <mxGeometry relative="1" as="geometry">
            <mxPoint x="10" y="200" as="targetPoint" />
            <Array as="points">
              <mxPoint x="270" y="215" />
              <mxPoint x="270" y="215" />
            </Array>
          </mxGeometry>
        </mxCell>
        <mxCell id="Xx6dp7dmALm0e4QaXN19-33" value="" style="outlineConnect=0;dashed=0;verticalLabelPosition=bottom;verticalAlign=top;align=center;html=1;shape=mxgraph.aws3.iam;fillColor=#759C3E;gradientColor=none;" parent="1" vertex="1">
          <mxGeometry x="306.25" y="174.25" width="42" height="81" as="geometry" />
        </mxCell>
        <mxCell id="Xx6dp7dmALm0e4QaXN19-34" value="" style="points=[[0,0,0],[0.25,0,0],[0.5,0,0],[0.75,0,0],[1,0,0],[0,1,0],[0.25,1,0],[0.5,1,0],[0.75,1,0],[1,1,0],[0,0.25,0],[0,0.5,0],[0,0.75,0],[1,0.25,0],[1,0.5,0],[1,0.75,0]];outlineConnect=0;fontColor=#232F3E;fillColor=#7AA116;strokeColor=#ffffff;dashed=0;verticalLabelPosition=bottom;verticalAlign=top;align=center;html=1;fontSize=12;fontStyle=0;aspect=fixed;shape=mxgraph.aws4.resourceIcon;resIcon=mxgraph.aws4.s3;shadow=0;" parent="1" vertex="1">
          <mxGeometry x="176.5" y="161.5" width="78" height="78" as="geometry" />
        </mxCell>
        <mxCell id="Xx6dp7dmALm0e4QaXN19-35" value="S3 Bucket" style="text;html=1;strokeColor=none;fillColor=none;align=center;verticalAlign=middle;whiteSpace=wrap;rounded=0;" parent="1" vertex="1">
          <mxGeometry x="185.5" y="131" width="60" height="30" as="geometry" />
        </mxCell>
        <mxCell id="Xx6dp7dmALm0e4QaXN19-36" value="public-assets" style="text;html=1;strokeColor=none;fillColor=none;align=center;verticalAlign=middle;whiteSpace=wrap;rounded=0;" parent="1" vertex="1">
          <mxGeometry x="170" y="238" width="91" height="30" as="geometry" />
        </mxCell>
        <mxCell id="Xx6dp7dmALm0e4QaXN19-37" value="IAM" style="text;html=1;strokeColor=none;fillColor=none;align=center;verticalAlign=middle;whiteSpace=wrap;rounded=0;" parent="1" vertex="1">
          <mxGeometry x="297.25" y="145.75" width="60" height="30" as="geometry" />
        </mxCell>
        <mxCell id="Xx6dp7dmALm0e4QaXN19-57" value="" style="edgeStyle=orthogonalEdgeStyle;rounded=0;orthogonalLoop=1;jettySize=auto;html=1;" parent="1" source="Xx6dp7dmALm0e4QaXN19-43" target="Xx6dp7dmALm0e4QaXN19-46" edge="1">
          <mxGeometry relative="1" as="geometry" />
        </mxCell>
        <mxCell id="Xx6dp7dmALm0e4QaXN19-43" value="" style="sketch=0;outlineConnect=0;fontColor=#232F3E;gradientColor=none;fillColor=#FF9900;strokeColor=none;dashed=0;verticalLabelPosition=bottom;verticalAlign=top;align=center;html=1;fontSize=12;fontStyle=0;aspect=fixed;pointerEvents=1;shape=mxgraph.aws4.layers;" parent="1" vertex="1">
          <mxGeometry x="1160" y="740" width="78" height="78" as="geometry" />
        </mxCell>
        <mxCell id="Xx6dp7dmALm0e4QaXN19-56" value="" style="edgeStyle=orthogonalEdgeStyle;rounded=0;orthogonalLoop=1;jettySize=auto;html=1;shadow=0;" parent="1" source="Xx6dp7dmALm0e4QaXN19-44" target="Xx6dp7dmALm0e4QaXN19-43" edge="1">
          <mxGeometry relative="1" as="geometry">
            <mxPoint x="1203" y="929.0000000000002" as="targetPoint" />
            <Array as="points">
              <mxPoint x="1310" y="780" />
              <mxPoint x="1310" y="780" />
            </Array>
          </mxGeometry>
        </mxCell>
        <mxCell id="Xx6dp7dmALm0e4QaXN19-44" value="" style="sketch=0;points=[[0,0,0],[0.25,0,0],[0.5,0,0],[0.75,0,0],[1,0,0],[0,1,0],[0.25,1,0],[0.5,1,0],[0.75,1,0],[1,1,0],[0,0.25,0],[0,0.5,0],[0,0.75,0],[1,0.25,0],[1,0.5,0],[1,0.75,0]];outlineConnect=0;fontColor=#232F3E;fillColor=#7AA116;strokeColor=#ffffff;dashed=0;verticalLabelPosition=bottom;verticalAlign=top;align=center;html=1;fontSize=12;fontStyle=0;aspect=fixed;shape=mxgraph.aws4.resourceIcon;resIcon=mxgraph.aws4.s3;" parent="1" vertex="1">
          <mxGeometry x="1291.5" y="740" width="78" height="78" as="geometry" />
        </mxCell>
        <mxCell id="Xx6dp7dmALm0e4QaXN19-46" value="" style="sketch=0;points=[[0,0,0],[0.25,0,0],[0.5,0,0],[0.75,0,0],[1,0,0],[0,1,0],[0.25,1,0],[0.5,1,0],[0.75,1,0],[1,1,0],[0,0.25,0],[0,0.5,0],[0,0.75,0],[1,0.25,0],[1,0.5,0],[1,0.75,0]];outlineConnect=0;fontColor=#232F3E;fillColor=#ED7100;strokeColor=#ffffff;dashed=0;verticalLabelPosition=bottom;verticalAlign=top;align=center;html=1;fontSize=12;fontStyle=0;aspect=fixed;shape=mxgraph.aws4.resourceIcon;resIcon=mxgraph.aws4.lambda;" parent="1" vertex="1">
          <mxGeometry x="1043" y="740" width="78" height="78" as="geometry" />
        </mxCell>
        <mxCell id="Xx6dp7dmALm0e4QaXN19-49" value="" style="sketch=0;points=[[0,0,0],[0.25,0,0],[0.5,0,0],[0.75,0,0],[1,0,0],[0,1,0],[0.25,1,0],[0.5,1,0],[0.75,1,0],[1,1,0],[0,0.25,0],[0,0.5,0],[0,0.75,0],[1,0.25,0],[1,0.5,0],[1,0.75,0]];outlineConnect=0;fontColor=#232F3E;fillColor=#E7157B;strokeColor=#ffffff;dashed=0;verticalLabelPosition=bottom;verticalAlign=top;align=center;html=1;fontSize=12;fontStyle=0;aspect=fixed;shape=mxgraph.aws4.resourceIcon;resIcon=mxgraph.aws4.api_gateway;" parent="1" vertex="1">
          <mxGeometry x="905.8699999999999" y="730.5" width="78" height="78" as="geometry" />
        </mxCell>
        <mxCell id="Xx6dp7dmALm0e4QaXN19-71" value="" style="edgeStyle=orthogonalEdgeStyle;rounded=0;orthogonalLoop=1;jettySize=auto;html=1;" parent="1" source="Xx6dp7dmALm0e4QaXN19-51" target="Xx6dp7dmALm0e4QaXN19-69" edge="1">
          <mxGeometry relative="1" as="geometry">
            <mxPoint x="1111" y="118" as="targetPoint" />
            <Array as="points">
              <mxPoint x="1060" y="268" />
            </Array>
          </mxGeometry>
        </mxCell>
        <mxCell id="Xx6dp7dmALm0e4QaXN19-51" value="" style="sketch=0;outlineConnect=0;fontColor=#232F3E;gradientColor=none;fillColor=#ED7100;strokeColor=none;dashed=0;verticalLabelPosition=bottom;verticalAlign=top;align=center;html=1;fontSize=12;fontStyle=0;aspect=fixed;pointerEvents=1;shape=mxgraph.aws4.lambda_function;" parent="1" vertex="1">
          <mxGeometry x="1104" y="250.5" width="80" height="80" as="geometry" />
        </mxCell>
        <mxCell id="Xx6dp7dmALm0e4QaXN19-114" value="" style="edgeStyle=orthogonalEdgeStyle;rounded=0;orthogonalLoop=1;jettySize=auto;html=1;dashed=1;dashPattern=12 12;" parent="1" source="Xx6dp7dmALm0e4QaXN19-52" edge="1">
          <mxGeometry relative="1" as="geometry">
            <Array as="points">
              <mxPoint x="1230" y="280" />
              <mxPoint x="1230" y="90" />
              <mxPoint x="590" y="90" />
              <mxPoint x="590" y="339" />
              <mxPoint x="610" y="339" />
            </Array>
            <mxPoint x="610" y="339" as="targetPoint" />
          </mxGeometry>
        </mxCell>
        <mxCell id="Xx6dp7dmALm0e4QaXN19-52" value="" style="sketch=0;outlineConnect=0;fontColor=#232F3E;gradientColor=none;fillColor=#ED7100;strokeColor=none;dashed=0;verticalLabelPosition=bottom;verticalAlign=top;align=center;html=1;fontSize=12;fontStyle=0;aspect=fixed;pointerEvents=1;shape=mxgraph.aws4.lambda_function;" parent="1" vertex="1">
          <mxGeometry x="1284" y="250.5" width="80" height="80" as="geometry" />
        </mxCell>
        <mxCell id="Xx6dp7dmALm0e4QaXN19-54" value="S3 Bucket" style="text;html=1;strokeColor=none;fillColor=none;align=center;verticalAlign=middle;whiteSpace=wrap;rounded=0;" parent="1" vertex="1">
          <mxGeometry x="1300.5" y="710" width="60" height="30" as="geometry" />
        </mxCell>
        <mxCell id="Xx6dp7dmALm0e4QaXN19-55" value="next-lambda-layers" style="text;html=1;strokeColor=none;fillColor=none;align=center;verticalAlign=middle;whiteSpace=wrap;rounded=0;" parent="1" vertex="1">
          <mxGeometry x="1271" y="816.5" width="119" height="30" as="geometry" />
        </mxCell>
        <mxCell id="Xx6dp7dmALm0e4QaXN19-58" value="Layer" style="text;html=1;strokeColor=none;fillColor=none;align=center;verticalAlign=middle;whiteSpace=wrap;rounded=0;labelBackgroundColor=#F4F0E6;" parent="1" vertex="1">
          <mxGeometry x="1169" y="710" width="60" height="30" as="geometry" />
        </mxCell>
        <mxCell id="Xx6dp7dmALm0e4QaXN19-60" value="Lambda Function" style="text;html=1;strokeColor=none;fillColor=none;align=center;verticalAlign=middle;whiteSpace=wrap;rounded=0;" parent="1" vertex="1">
          <mxGeometry x="1026.5" y="710" width="111" height="30" as="geometry" />
        </mxCell>
        <mxCell id="Xx6dp7dmALm0e4QaXN19-61" value="server-lambda" style="text;html=1;strokeColor=none;fillColor=none;align=center;verticalAlign=middle;whiteSpace=wrap;rounded=0;labelBackgroundColor=#F4F0E6;" parent="1" vertex="1">
          <mxGeometry x="1043" y="818" width="81" height="21" as="geometry" />
        </mxCell>
        <mxCell id="Xx6dp7dmALm0e4QaXN19-65" value="API Gateway" style="text;html=1;strokeColor=none;fillColor=none;align=center;verticalAlign=middle;whiteSpace=wrap;rounded=0;" parent="1" vertex="1">
          <mxGeometry x="894.3699999999999" y="700.5" width="101" height="30" as="geometry" />
        </mxCell>
        <mxCell id="Xx6dp7dmALm0e4QaXN19-68" value="&amp;nbsp;Lambda&amp;nbsp;" style="text;html=1;strokeColor=none;fillColor=none;align=center;verticalAlign=middle;whiteSpace=wrap;rounded=0;fontColor=#000000;labelBackgroundColor=#F4F0E6;" parent="1" vertex="1">
          <mxGeometry x="1114" y="678" width="60" height="21" as="geometry" />
        </mxCell>
        <mxCell id="Xx6dp7dmALm0e4QaXN19-79" value="" style="edgeStyle=orthogonalEdgeStyle;rounded=0;orthogonalLoop=1;jettySize=auto;html=1;" parent="1" source="Xx6dp7dmALm0e4QaXN19-69" target="Xx6dp7dmALm0e4QaXN19-34" edge="1">
          <mxGeometry relative="1" as="geometry">
            <mxPoint x="250" y="170" as="targetPoint" />
            <Array as="points">
              <mxPoint x="290" y="140" />
              <mxPoint x="290" y="170" />
            </Array>
          </mxGeometry>
        </mxCell>
        <mxCell id="Xx6dp7dmALm0e4QaXN19-69" value="" style="outlineConnect=0;dashed=0;verticalLabelPosition=bottom;verticalAlign=top;align=center;html=1;shape=mxgraph.aws3.iam;fillColor=#759C3E;gradientColor=none;" parent="1" vertex="1">
          <mxGeometry x="1039.5" y="118" width="42" height="81" as="geometry" />
        </mxCell>
        <mxCell id="Xx6dp7dmALm0e4QaXN19-73" value="IAM" style="text;html=1;strokeColor=none;fillColor=none;align=center;verticalAlign=middle;whiteSpace=wrap;rounded=0;" parent="1" vertex="1">
          <mxGeometry x="1030" y="98" width="60" height="20" as="geometry" />
        </mxCell>
        <mxCell id="Xx6dp7dmALm0e4QaXN19-74" value="Lambda@Edge" style="text;html=1;strokeColor=none;fillColor=none;align=center;verticalAlign=middle;whiteSpace=wrap;rounded=0;" parent="1" vertex="1">
          <mxGeometry x="1114" y="218" width="60" height="30" as="geometry" />
        </mxCell>
        <mxCell id="Xx6dp7dmALm0e4QaXN19-75" value="Lambda@Edge" style="text;html=1;strokeColor=none;fillColor=none;align=center;verticalAlign=middle;whiteSpace=wrap;rounded=0;" parent="1" vertex="1">
          <mxGeometry x="1294" y="218" width="60" height="30" as="geometry" />
        </mxCell>
        <mxCell id="Xx6dp7dmALm0e4QaXN19-76" value="image-optimization" style="text;html=1;strokeColor=none;fillColor=none;align=center;verticalAlign=middle;whiteSpace=wrap;rounded=0;" parent="1" vertex="1">
          <mxGeometry x="1084" y="330.5" width="120" height="19.5" as="geometry" />
        </mxCell>
        <mxCell id="Xx6dp7dmALm0e4QaXN19-77" value="image-redirection" style="text;html=1;strokeColor=none;fillColor=none;align=center;verticalAlign=middle;whiteSpace=wrap;rounded=0;" parent="1" vertex="1">
          <mxGeometry x="1261" y="328" width="120" height="30" as="geometry" />
        </mxCell>
        <mxCell id="Xx6dp7dmALm0e4QaXN19-87" value="" style="edgeStyle=orthogonalEdgeStyle;rounded=0;orthogonalLoop=1;jettySize=auto;html=1;entryX=0;entryY=0.5;entryDx=0;entryDy=0;entryPerimeter=0;" parent="1" source="Xx6dp7dmALm0e4QaXN19-80" target="Xx6dp7dmALm0e4QaXN19-83" edge="1">
          <mxGeometry relative="1" as="geometry">
            <mxPoint x="667" y="439.9999999999998" as="targetPoint" />
            <Array as="points">
              <mxPoint x="610" y="440" />
              <mxPoint x="610" y="339" />
            </Array>
          </mxGeometry>
        </mxCell>
        <mxCell id="Xx6dp7dmALm0e4QaXN19-105" value="&amp;nbsp;/_next/image/*&amp;nbsp;" style="edgeLabel;html=1;align=center;verticalAlign=middle;resizable=0;points=[];labelBackgroundColor=#F4F0E6;" parent="Xx6dp7dmALm0e4QaXN19-87" vertex="1" connectable="0">
          <mxGeometry x="0.5625" relative="1" as="geometry">
            <mxPoint x="-16" as="offset" />
          </mxGeometry>
        </mxCell>
        <mxCell id="Xx6dp7dmALm0e4QaXN19-89" value="" style="edgeStyle=orthogonalEdgeStyle;rounded=0;orthogonalLoop=1;jettySize=auto;html=1;entryX=0;entryY=0.5;entryDx=0;entryDy=0;entryPerimeter=0;" parent="1" source="Xx6dp7dmALm0e4QaXN19-80" target="Xx6dp7dmALm0e4QaXN19-82" edge="1">
          <mxGeometry relative="1" as="geometry">
            <mxPoint x="670" y="490.0000000000002" as="targetPoint" />
            <Array as="points">
              <mxPoint x="610" y="440" />
              <mxPoint x="610" y="539" />
            </Array>
          </mxGeometry>
        </mxCell>
        <mxCell id="Xx6dp7dmALm0e4QaXN19-103" value="&amp;nbsp;$default&amp;nbsp;" style="edgeLabel;html=1;align=center;verticalAlign=middle;resizable=0;points=[];labelBackgroundColor=#F4F0E6;" parent="Xx6dp7dmALm0e4QaXN19-89" vertex="1" connectable="0">
          <mxGeometry x="0.453" relative="1" as="geometry">
            <mxPoint as="offset" />
          </mxGeometry>
        </mxCell>
        <mxCell id="Xx6dp7dmALm0e4QaXN19-91" value="" style="edgeStyle=orthogonalEdgeStyle;rounded=0;orthogonalLoop=1;jettySize=auto;html=1;entryX=0;entryY=0.5;entryDx=0;entryDy=0;entryPerimeter=0;" parent="1" source="Xx6dp7dmALm0e4QaXN19-80" target="Xx6dp7dmALm0e4QaXN19-81" edge="1">
          <mxGeometry relative="1" as="geometry">
            <mxPoint x="730" y="439" as="targetPoint" />
          </mxGeometry>
        </mxCell>
        <mxCell id="Xx6dp7dmALm0e4QaXN19-104" value="&amp;nbsp;/_next/image*&amp;nbsp;" style="edgeLabel;html=1;align=center;verticalAlign=middle;resizable=0;points=[];labelBackgroundColor=#F4F0E6;" parent="Xx6dp7dmALm0e4QaXN19-91" vertex="1" connectable="0">
          <mxGeometry x="0.0656" y="-2" relative="1" as="geometry">
            <mxPoint as="offset" />
          </mxGeometry>
        </mxCell>
        <mxCell id="Xx6dp7dmALm0e4QaXN19-107" value="" style="edgeStyle=orthogonalEdgeStyle;rounded=0;orthogonalLoop=1;jettySize=auto;html=1;exitX=0.5;exitY=1;exitDx=0;exitDy=0;exitPerimeter=0;" parent="1" source="Xx6dp7dmALm0e4QaXN19-80" target="Xx6dp7dmALm0e4QaXN19-17" edge="1">
          <mxGeometry relative="1" as="geometry">
            <mxPoint x="558.9999999999995" y="825" as="targetPoint" />
            <Array as="points">
              <mxPoint x="559" y="551" />
            </Array>
          </mxGeometry>
        </mxCell>
        <mxCell id="Xx6dp7dmALm0e4QaXN19-108" value="&amp;nbsp;/_next/static/*&amp;nbsp;" style="edgeLabel;html=1;align=center;verticalAlign=middle;resizable=0;points=[];labelBackgroundColor=#F4F0E6;" parent="Xx6dp7dmALm0e4QaXN19-107" vertex="1" connectable="0">
          <mxGeometry x="0.5163" relative="1" as="geometry">
            <mxPoint x="11" as="offset" />
          </mxGeometry>
        </mxCell>
        <mxCell id="Xx6dp7dmALm0e4QaXN19-110" value="" style="edgeStyle=orthogonalEdgeStyle;rounded=0;orthogonalLoop=1;jettySize=auto;html=1;entryX=1;entryY=0.5;entryDx=0;entryDy=0;entryPerimeter=0;" parent="1" source="Xx6dp7dmALm0e4QaXN19-80" target="Xx6dp7dmALm0e4QaXN19-30" edge="1">
          <mxGeometry relative="1" as="geometry">
            <mxPoint x="550" y="10" as="targetPoint" />
            <Array as="points">
              <mxPoint x="560" y="296" />
            </Array>
          </mxGeometry>
        </mxCell>
        <mxCell id="Xx6dp7dmALm0e4QaXN19-111" value="&amp;nbsp;/assets/*&amp;nbsp;" style="edgeLabel;html=1;align=center;verticalAlign=middle;resizable=0;points=[];labelBackgroundColor=#F4F0E6;" parent="Xx6dp7dmALm0e4QaXN19-110" vertex="1" connectable="0">
          <mxGeometry x="0.5801" y="1" relative="1" as="geometry">
            <mxPoint x="19" y="-1" as="offset" />
          </mxGeometry>
        </mxCell>
        <mxCell id="Xx6dp7dmALm0e4QaXN19-80" value="" style="sketch=0;points=[[0,0,0],[0.25,0,0],[0.5,0,0],[0.75,0,0],[1,0,0],[0,1,0],[0.25,1,0],[0.5,1,0],[0.75,1,0],[1,1,0],[0,0.25,0],[0,0.5,0],[0,0.75,0],[1,0.25,0],[1,0.5,0],[1,0.75,0]];outlineConnect=0;fontColor=#232F3E;fillColor=#8C4FFF;strokeColor=#ffffff;dashed=0;verticalLabelPosition=bottom;verticalAlign=top;align=center;html=1;fontSize=12;fontStyle=0;aspect=fixed;shape=mxgraph.aws4.resourceIcon;resIcon=mxgraph.aws4.cloudfront;" parent="1" vertex="1">
          <mxGeometry x="520" y="401" width="78" height="78" as="geometry" />
        </mxCell>
        <mxCell id="Xx6dp7dmALm0e4QaXN19-113" value="" style="edgeStyle=orthogonalEdgeStyle;rounded=0;orthogonalLoop=1;jettySize=auto;html=1;" parent="1" source="Xx6dp7dmALm0e4QaXN19-81" target="Xx6dp7dmALm0e4QaXN19-52" edge="1">
          <mxGeometry relative="1" as="geometry">
            <mxPoint x="1560" y="270" as="targetPoint" />
            <Array as="points">
              <mxPoint x="1260" y="440" />
              <mxPoint x="1260" y="300" />
            </Array>
          </mxGeometry>
        </mxCell>
        <mxCell id="Xx6dp7dmALm0e4QaXN19-81" value="" style="sketch=0;points=[[0,0,0],[0.25,0,0],[0.5,0,0],[0.75,0,0],[1,0,0],[0,1,0],[0.25,1,0],[0.5,1,0],[0.75,1,0],[1,1,0],[0,0.25,0],[0,0.5,0],[0,0.75,0],[1,0.25,0],[1,0.5,0],[1,0.75,0]];outlineConnect=0;fontColor=#232F3E;fillColor=none;strokeColor=#B82E2E;dashed=0;verticalLabelPosition=bottom;verticalAlign=top;align=center;html=1;fontSize=12;fontStyle=0;aspect=fixed;shape=mxgraph.aws4.resourceIcon;resIcon=mxgraph.aws4.cloudfront;" parent="1" vertex="1">
          <mxGeometry x="880" y="401" width="78" height="78" as="geometry" />
        </mxCell>
        <mxCell id="Xx6dp7dmALm0e4QaXN19-102" value="" style="edgeStyle=orthogonalEdgeStyle;rounded=0;orthogonalLoop=1;jettySize=auto;html=1;entryX=0;entryY=0.5;entryDx=0;entryDy=0;entryPerimeter=0;" parent="1" source="Xx6dp7dmALm0e4QaXN19-82" target="Xx6dp7dmALm0e4QaXN19-49" edge="1">
          <mxGeometry relative="1" as="geometry">
            <Array as="points">
              <mxPoint x="860" y="539" />
              <mxPoint x="860" y="770" />
              <mxPoint x="906" y="770" />
            </Array>
          </mxGeometry>
        </mxCell>
        <mxCell id="Xx6dp7dmALm0e4QaXN19-82" value="" style="sketch=0;points=[[0,0,0],[0.25,0,0],[0.5,0,0],[0.75,0,0],[1,0,0],[0,1,0],[0.25,1,0],[0.5,1,0],[0.75,1,0],[1,1,0],[0,0.25,0],[0,0.5,0],[0,0.75,0],[1,0.25,0],[1,0.5,0],[1,0.75,0]];outlineConnect=0;fontColor=#232F3E;fillColor=none;strokeColor=#B82E2E;dashed=0;verticalLabelPosition=bottom;verticalAlign=top;align=center;html=1;fontSize=12;fontStyle=0;aspect=fixed;shape=mxgraph.aws4.resourceIcon;resIcon=mxgraph.aws4.cloudfront;" parent="1" vertex="1">
          <mxGeometry x="738.3699999999999" y="500" width="78" height="78" as="geometry" />
        </mxCell>
        <mxCell id="Xx6dp7dmALm0e4QaXN19-115" value="" style="edgeStyle=orthogonalEdgeStyle;rounded=0;orthogonalLoop=1;jettySize=auto;html=1;exitX=1;exitY=0.5;exitDx=0;exitDy=0;exitPerimeter=0;entryX=-0.021;entryY=0.435;entryDx=0;entryDy=0;entryPerimeter=0;" parent="1" source="Xx6dp7dmALm0e4QaXN19-83" target="Xx6dp7dmALm0e4QaXN19-51" edge="1">
          <mxGeometry relative="1" as="geometry">
            <Array as="points">
              <mxPoint x="1060" y="339" />
              <mxPoint x="1060" y="285" />
            </Array>
          </mxGeometry>
        </mxCell>
        <mxCell id="Xx6dp7dmALm0e4QaXN19-83" value="" style="sketch=0;points=[[0,0,0],[0.25,0,0],[0.5,0,0],[0.75,0,0],[1,0,0],[0,1,0],[0.25,1,0],[0.5,1,0],[0.75,1,0],[1,1,0],[0,0.25,0],[0,0.5,0],[0,0.75,0],[1,0.25,0],[1,0.5,0],[1,0.75,0]];outlineConnect=0;fontColor=#232F3E;fillColor=none;strokeColor=#B82E2E;dashed=0;verticalLabelPosition=bottom;verticalAlign=top;align=center;html=1;fontSize=12;fontStyle=0;aspect=fixed;shape=mxgraph.aws4.resourceIcon;resIcon=mxgraph.aws4.cloudfront;" parent="1" vertex="1">
          <mxGeometry x="738.3699999999999" y="300" width="78" height="78" as="geometry" />
        </mxCell>
        <mxCell id="Xx6dp7dmALm0e4QaXN19-85" value="" style="endArrow=classic;html=1;rounded=0;exitX=1;exitY=0.5;exitDx=0;exitDy=0;entryX=0;entryY=0.5;entryDx=0;entryDy=0;entryPerimeter=0;dashed=1;" parent="1" source="Xx6dp7dmALm0e4QaXN19-3" target="Xx6dp7dmALm0e4QaXN19-80" edge="1">
          <mxGeometry width="50" height="50" relative="1" as="geometry">
            <mxPoint x="-250" y="430" as="sourcePoint" />
            <mxPoint x="-200" y="380" as="targetPoint" />
          </mxGeometry>
        </mxCell>
        <mxCell id="Xx6dp7dmALm0e4QaXN19-92" value="OAI" style="text;html=1;strokeColor=none;fillColor=none;align=center;verticalAlign=middle;whiteSpace=wrap;rounded=0;" parent="1" vertex="1">
          <mxGeometry x="747.3699999999999" y="280" width="60" height="30" as="geometry" />
        </mxCell>
        <mxCell id="Xx6dp7dmALm0e4QaXN19-93" value="OAI" style="text;html=1;strokeColor=none;fillColor=none;align=center;verticalAlign=middle;whiteSpace=wrap;rounded=0;" parent="1" vertex="1">
          <mxGeometry x="889" y="378" width="60" height="30" as="geometry" />
        </mxCell>
        <mxCell id="Xx6dp7dmALm0e4QaXN19-94" value="OAI" style="text;html=1;strokeColor=none;fillColor=none;align=center;verticalAlign=middle;whiteSpace=wrap;rounded=0;" parent="1" vertex="1">
          <mxGeometry x="747.3699999999999" y="479" width="60" height="30" as="geometry" />
        </mxCell>
        <mxCell id="Xx6dp7dmALm0e4QaXN19-95" value="image_optimization_origin" style="text;html=1;strokeColor=none;fillColor=none;align=center;verticalAlign=middle;whiteSpace=wrap;rounded=0;" parent="1" vertex="1">
          <mxGeometry x="700" y="371" width="152.75" height="30" as="geometry" />
        </mxCell>
        <mxCell id="Xx6dp7dmALm0e4QaXN19-96" value="image_redirection_origin" style="text;html=1;strokeColor=none;fillColor=none;align=center;verticalAlign=middle;whiteSpace=wrap;rounded=0;" parent="1" vertex="1">
          <mxGeometry x="842.6199999999999" y="470" width="152.75" height="30" as="geometry" />
        </mxCell>
        <mxCell id="Xx6dp7dmALm0e4QaXN19-97" value="dynamic_assets_origin" style="text;html=1;strokeColor=none;fillColor=none;align=center;verticalAlign=middle;whiteSpace=wrap;rounded=0;" parent="1" vertex="1">
          <mxGeometry x="701" y="570" width="152.75" height="30" as="geometry" />
        </mxCell>
        <mxCell id="Xx6dp7dmALm0e4QaXN19-101" value="" style="endArrow=classic;html=1;rounded=0;entryX=-0.003;entryY=0.439;entryDx=0;entryDy=0;entryPerimeter=0;exitX=1;exitY=0.5;exitDx=0;exitDy=0;exitPerimeter=0;" parent="1" source="Xx6dp7dmALm0e4QaXN19-49" target="Xx6dp7dmALm0e4QaXN19-67" edge="1">
          <mxGeometry width="50" height="50" relative="1" as="geometry">
            <mxPoint x="1151.5" y="840" as="sourcePoint" />
            <mxPoint x="1201.5" y="790" as="targetPoint" />
          </mxGeometry>
        </mxCell>
        <mxCell id="Xx6dp7dmALm0e4QaXN19-117" value="CloudFront" style="text;html=1;strokeColor=none;fillColor=none;align=center;verticalAlign=middle;whiteSpace=wrap;rounded=0;fontColor=#800080;" parent="1" vertex="1">
          <mxGeometry x="845" y="190" width="60" height="20" as="geometry" />
        </mxCell>
        <mxCell id="CwiYu2KfUIhzmu0SECT2-6" value="NEXT SERVERLESS MODULE" style="text;html=1;strokeColor=none;fillColor=none;align=center;verticalAlign=middle;whiteSpace=wrap;rounded=0;fontColor=#F85D23;" vertex="1" parent="1">
          <mxGeometry x="710" y="10" width="200" height="30" as="geometry" />
        </mxCell>
      </root>
    </mxGraphModel>
  </diagram>
</mxfile>
